<mxfile host="app.diagrams.net" modified="2023-10-31T07:31:35.006Z" agent="Mozilla/5.0 (Windows NT 10.0; Win64; x64) AppleWebKit/537.36 (KHTML, like Gecko) Chrome/118.0.0.0 Safari/537.36" version="22.0.8" etag="i6JCQrYj225hGcRw0gDF" type="github">
  <diagram name="Page-1" id="XJGG3QNDA4f2AQjZTH9o">
    <mxGraphModel>
      <root>
        <mxCell id="0" />
        <mxCell id="1" parent="0" />
      </root>
    </mxGraphModel>
  </diagram>
</mxfile>
